<svg width="64" height="64" viewBox="0 0 64 64" fill="none" xmlns="http://www.w3.org/2000/svg">
<g filter="url(#filter0_ii_209_120)">
<rect width="64" height="64" rx="16" fill="url(#paint0_linear_209_120)"/>
<rect width="64" height="64" rx="16" fill="url(#paint1_linear_209_120)" fill-opacity="0.2" style="mix-blend-mode:soft-light"/>
</g>
<g filter="url(#filter1_ii_209_120)">
<path fill-rule="evenodd" clip-rule="evenodd" d="M45.3055 13.2766C45.3055 12.5715 44.7339 12 44.0289 12C43.3239 12 42.7523 12.5715 42.7523 13.2766C42.7523 14.4608 41.7847 15.3956 40.647 15.7243C37.4478 16.6485 35.0928 19.516 35.0928 23.0638C35.0928 24.1284 35.1637 25.3711 35.242 26.4229C35.3937 28.4614 36.913 30.1699 39.0075 30.4213C40.317 30.5786 42.0574 30.7234 44.0289 30.7234C46.0004 30.7234 47.7408 30.5786 49.0504 30.4213C51.1448 30.1699 52.6642 28.4614 52.8158 26.4229C52.8941 25.3711 52.9651 24.1284 52.9651 23.0638C52.9651 19.516 50.6101 16.6485 47.4109 15.7243C46.2732 15.3956 45.3055 14.4608 45.3055 13.2766ZM42.3268 22.6383C42.3268 21.9333 41.7552 21.3617 41.0502 21.3617C40.3452 21.3617 39.7736 21.9333 39.7736 22.6383V23.4894C39.7736 24.1944 40.3452 24.766 41.0502 24.766C41.7552 24.766 42.3268 24.1944 42.3268 23.4894V22.6383ZM48.2842 22.6383C48.2842 21.9333 47.7127 21.3617 47.0076 21.3617C46.3026 21.3617 45.731 21.9333 45.731 22.6383V23.4894C45.731 24.1944 46.3026 24.766 47.0076 24.766C47.7127 24.766 48.2842 24.1944 48.2842 23.4894V22.6383ZM32.5396 23.0638C32.5396 20.2597 31.8829 16.9406 29.088 16.7134C28.8229 16.6918 28.5549 16.6809 28.2842 16.6809C22.8789 16.6809 18.497 21.0627 18.497 26.4681V34.1277C18.497 39.533 22.8789 43.9149 28.2842 43.9149C33.6896 43.9149 38.0715 39.533 38.0715 34.1277C38.0715 33.383 37.5413 32.7577 36.8552 32.468C34.4809 31.4654 32.887 29.1818 32.6958 26.6123C32.616 25.5391 32.5396 24.2228 32.5396 23.0638ZM14.25 34.6257C15.6293 34.2087 16.7759 35.4198 17.1125 36.8209C18.3246 41.8669 22.8666 45.617 28.2844 45.617C33.6621 45.617 38.1769 41.9223 39.4289 36.9329C39.7967 35.4671 40.9906 34.1516 42.4265 34.623C43.2052 34.8785 43.6216 35.6346 43.5699 36.3969C43.1164 43.0884 38.1141 48.531 31.63 49.658C31.2382 49.7261 30.9264 50.0322 30.8665 50.4253C30.7441 51.2277 30.1388 51.9094 29.2655 51.969C28.9937 51.9876 28.6683 52 28.2847 52C27.901 52 27.5757 51.9876 27.3039 51.969C26.4306 51.9094 25.8248 51.2276 25.7043 50.4239C25.6457 50.0322 25.3354 49.7268 24.9451 49.6591C18.4873 48.5397 13.4978 43.1397 13.0052 36.4876C12.9441 35.6627 13.4264 34.8747 14.25 34.6257Z" fill="white"/>
</g>
<defs>
<filter id="filter0_ii_209_120" x="-0.499473" y="-0.499473" width="64.9989" height="64.9989" filterUnits="userSpaceOnUse" color-interpolation-filters="sRGB">
<feFlood flood-opacity="0" result="BackgroundImageFix"/>
<feBlend mode="normal" in="SourceGraphic" in2="BackgroundImageFix" result="shape"/>
<feColorMatrix in="SourceAlpha" type="matrix" values="0 0 0 0 0 0 0 0 0 0 0 0 0 0 0 0 0 0 127 0" result="hardAlpha"/>
<feOffset dx="0.499473" dy="0.499473"/>
<feGaussianBlur stdDeviation="0.249736"/>
<feComposite in2="hardAlpha" operator="arithmetic" k2="-1" k3="1"/>
<feColorMatrix type="matrix" values="0 0 0 0 1 0 0 0 0 1 0 0 0 0 1 0 0 0 0.2 0"/>
<feBlend mode="normal" in2="shape" result="effect1_innerShadow_209_120"/>
<feColorMatrix in="SourceAlpha" type="matrix" values="0 0 0 0 0 0 0 0 0 0 0 0 0 0 0 0 0 0 127 0" result="hardAlpha"/>
<feOffset dx="-0.499473" dy="-0.499473"/>
<feGaussianBlur stdDeviation="0.249736"/>
<feComposite in2="hardAlpha" operator="arithmetic" k2="-1" k3="1"/>
<feColorMatrix type="matrix" values="0 0 0 0 0 0 0 0 0 0 0 0 0 0 0 0 0 0 0.05 0"/>
<feBlend mode="normal" in2="effect1_innerShadow_209_120" result="effect2_innerShadow_209_120"/>
</filter>
<filter id="filter1_ii_209_120" x="13" y="10.5976" width="39.9651" height="41.4024" filterUnits="userSpaceOnUse" color-interpolation-filters="sRGB">
<feFlood flood-opacity="0" result="BackgroundImageFix"/>
<feBlend mode="normal" in="SourceGraphic" in2="BackgroundImageFix" result="shape"/>
<feColorMatrix in="SourceAlpha" type="matrix" values="0 0 0 0 0 0 0 0 0 0 0 0 0 0 0 0 0 0 127 0" result="hardAlpha"/>
<feOffset dy="-1.38901"/>
<feGaussianBlur stdDeviation="0.520878"/>
<feComposite in2="hardAlpha" operator="arithmetic" k2="-1" k3="1"/>
<feColorMatrix type="matrix" values="0 0 0 0 0.690196 0 0 0 0 0.776941 0 0 0 0 1 0 0 0 0.8 0"/>
<feBlend mode="normal" in2="shape" result="effect1_innerShadow_209_120"/>
<feColorMatrix in="SourceAlpha" type="matrix" values="0 0 0 0 0 0 0 0 0 0 0 0 0 0 0 0 0 0 127 0" result="hardAlpha"/>
<feOffset dy="-1.40245"/>
<feGaussianBlur stdDeviation="0.934966"/>
<feComposite in2="hardAlpha" operator="arithmetic" k2="-1" k3="1"/>
<feColorMatrix type="matrix" values="0 0 0 0 0.766667 0 0 0 0 0.93 0 0 0 0 1 0 0 0 0.4 0"/>
<feBlend mode="normal" in2="effect1_innerShadow_209_120" result="effect2_innerShadow_209_120"/>
</filter>
<linearGradient id="paint0_linear_209_120" x1="32" y1="0" x2="32" y2="64" gradientUnits="userSpaceOnUse">
<stop stop-color="#171E33"/>
<stop offset="1" stop-color="#0F1320"/>
</linearGradient>
<linearGradient id="paint1_linear_209_120" x1="32" y1="0" x2="32" y2="64" gradientUnits="userSpaceOnUse">
<stop offset="0.328125" stop-color="white"/>
<stop offset="1" stop-opacity="0.1"/>
</linearGradient>
</defs>
</svg>
